<?xml version="1.0" encoding="UTF-8" standalone="no"?>
<!-- Created with Inkscape (http://www.inkscape.org/) -->

<svg
   width="512"
   height="512"
   viewBox="0 0 140 140"
   version="1.1"
   id="svg1"
   xml:space="preserve"
   inkscape:version="1.3 (0e150ed, 2023-07-21)"
   sodipodi:docname="ic_launcher-mono.svg"
   xmlns:inkscape="http://www.inkscape.org/namespaces/inkscape"
   xmlns:sodipodi="http://sodipodi.sourceforge.net/DTD/sodipodi-0.dtd"
   xmlns="http://www.w3.org/2000/svg"
   xmlns:svg="http://www.w3.org/2000/svg"><sodipodi:namedview
     id="namedview1"
     pagecolor="#ffffff"
     bordercolor="#666666"
     borderopacity="1.0"
     inkscape:showpageshadow="2"
     inkscape:pageopacity="0.0"
     inkscape:pagecheckerboard="true"
     inkscape:deskcolor="#d1d1d1"
     inkscape:document-units="mm"
     inkscape:zoom="0.47749997"
     inkscape:cx="306.8063"
     inkscape:cy="282.72253"
     inkscape:window-width="1440"
     inkscape:window-height="847"
     inkscape:window-x="0"
     inkscape:window-y="25"
     inkscape:window-maximized="1"
     inkscape:current-layer="layer1" /><defs
     id="defs1" /><g
     inkscape:label="Layer 1"
     inkscape:groupmode="layer"
     id="layer1"
     transform="translate(-30,-27.73438)"><path
       style="fill:#000000;stroke:none"
       d="M 96.825,141.20964 C 86.464636,140.15648 77.989848,136.19601 70.877705,129.08387 62.83117,121.03733 58.766988,111.26431 58.766988,99.961577 c 0,-11.30274 4.064182,-21.07576 12.110717,-29.1223 8.046536,-8.04654 17.819557,-12.11072 29.122295,-12.11072 11.30274,0 21.07576,4.06418 29.12229,12.11072 8.04654,8.04654 12.11072,17.81956 12.11072,29.1223 0,11.302733 -4.06418,21.075753 -12.11072,29.122293 -6.21538,6.21538 -13.79541,10.17974 -22.2174,11.61969 -2.40247,0.41076 -8.169298,0.7003 -10.07989,0.50608 z"
       id="path1"
       inkscape:label="sun" /><path
       id="path7"
       style="fill:#000000"
       inkscape:label="sundial-9"
       d="m 31.738281,96.03125 c 0,2.205078 0,4.41016 0,6.61523 4.673828,0 9.347657,0 14.021485,0 0,-2.38151 0,-4.763016 0,-7.144527 -4.673828,0 -9.347657,0 -14.021485,0 0,0.176432 0,0.352865 0,0.529297 z" /><path
       id="path6"
       style="fill:#000000"
       inkscape:label="sundial-8"
       d="m 50.595703,123.8457 c -3.130602,1.5377 -6.129831,3.33893 -9.151495,5.08096 -0.623164,0.50674 -1.7655,0.71604 -1.860224,1.65146 0.201943,1.29664 1.068607,2.37126 1.655519,3.51732 0.534762,0.8031 0.932937,1.78804 1.717528,2.3694 0.556924,0.18284 1.067891,-0.40763 1.584164,-0.58384 3.34031,-1.83687 6.70399,-3.63766 9.964664,-5.61342 -0.241426,-1.26225 -1.103952,-2.30396 -1.660774,-3.4431 -0.534305,-0.89739 -1.002519,-1.86472 -1.475944,-2.77175 -0.180165,-0.19301 -0.521622,-0.30688 -0.773438,-0.20703 z" /><path
       id="path4"
       style="fill:#000000"
       inkscape:label="sundial-7"
       d="m 66.210938,142.92188 c -0.977372,0.74353 -1.490687,1.95008 -2.239293,2.90781 -1.815039,2.65859 -3.633438,5.31489 -5.446254,7.975 1.906864,1.27678 3.688214,2.776 5.751953,3.79492 0.765337,0.24683 1.16772,-0.71694 1.622926,-1.17144 2.372225,-3.1016 4.494233,-6.38415 6.714964,-9.59419 -1.998838,-1.30378 -3.906924,-2.76468 -5.992187,-3.92578 -0.164976,-0.0976 -0.252464,-0.0893 -0.412109,0.0137 z" /><path
       id="path2"
       style="fill:#000000"
       inkscape:label="sundial-6"
       d="m 96.560547,154.50391 c 0,4.41015 0,8.82031 0,13.23047 2.38151,0 4.763023,-10e-6 7.144533,0 0,-4.58659 0,-9.17318 0,-13.75977 -2.38151,0 -4.763023,0 -7.144533,0 0,0.17643 0,0.35286 0,0.5293 z" /><path
       id="path3"
       style="fill:#000000"
       inkscape:label="sundial-5"
       d="m 130.28125,145.03516 c -1.85738,1.03384 -3.71975,2.0843 -5.50195,3.23828 -0.52537,0.71228 0.23458,1.54876 0.49804,2.22265 1.86599,3.38599 3.85667,6.70152 5.79102,10.04883 1.94796,-1.20352 4.04782,-2.1713 5.9043,-3.51367 0.5901,-0.48822 -0.12179,-1.22781 -0.3139,-1.76777 -1.76963,-3.37605 -3.57776,-6.74031 -5.61188,-9.96465 -0.20421,-0.22736 -0.46499,-0.57073 -0.76563,-0.26367 z" /><path
       id="path5"
       style="fill:#000000"
       inkscape:label="sundial-4"
       d="m 148.98633,124.39453 c -0.71535,0.0264 -0.87298,0.93336 -1.26532,1.41197 -0.83139,1.47379 -1.76892,2.92374 -2.30304,4.53725 -0.0399,0.68424 0.83862,0.80691 1.26779,1.18599 3.20713,1.91069 6.36948,3.9112 9.68729,5.62456 0.70854,0.38924 1.10289,-0.59887 1.46875,-1.06055 0.92036,-1.53937 1.90154,-3.07873 2.49804,-4.77734 0.10366,-0.76947 -0.88831,-0.93624 -1.35466,-1.34743 -3.06429,-1.82308 -6.05708,-3.79224 -9.26332,-5.35894 -0.23362,-0.10054 -0.47805,-0.20843 -0.73553,-0.21551 z" /><path
       id="path8"
       style="fill:#000000"
       inkscape:label="sundial-3"
       d="m 154.24023,96.03125 c 0,2.205078 0,4.41016 0,6.61523 4.67383,0 9.34766,0 14.02149,0 0,-2.38151 0,-4.763016 0,-7.144527 -4.67383,0 -9.34766,0 -14.02149,0 0,0.176432 0,0.352865 0,0.529297 z" /></g></svg>
